<?xml version="1.0" encoding="UTF-8" standalone="no"?>
<!-- Generator: Adobe Illustrator 21.0.2, SVG Export Plug-In . SVG Version: 6.00 Build 0)  -->

<svg
   xmlns:dc="http://purl.org/dc/elements/1.1/"
   xmlns:cc="http://creativecommons.org/ns#"
   xmlns:rdf="http://www.w3.org/1999/02/22-rdf-syntax-ns#"
   xmlns:svg="http://www.w3.org/2000/svg"
   xmlns="http://www.w3.org/2000/svg"
   xmlns:xlink="http://www.w3.org/1999/xlink"
   xmlns:sodipodi="http://sodipodi.sourceforge.net/DTD/sodipodi-0.dtd"
   xmlns:inkscape="http://www.inkscape.org/namespaces/inkscape"
   version="1.1"
   id="Calque_1"
   x="0px"
   y="0px"
   viewBox="0 0 841.9 1190.6"
   style="enable-background:new 0 0 841.9 1190.6;"
   xml:space="preserve"
   inkscape:version="0.91 r13725"
   sodipodi:docname="logo.svg"><metadata
     id="metadata41"><rdf:RDF><cc:Work
         rdf:about=""><dc:format>image/svg+xml</dc:format><dc:type
           rdf:resource="http://purl.org/dc/dcmitype/StillImage" /></cc:Work></rdf:RDF></metadata><defs
     id="defs39"><linearGradient
       y2="629.48492"
       x2="422.3526"
       y1="524.48901"
       x1="422.3526"
       gradientUnits="userSpaceOnUse"
       id="SVGID_2_"
       xlink:href="#linearGradient4200"><stop
         id="stop4196"
         style="stop-color:#00ABAE"
         offset="0" /><stop
         id="stop4198"
         style="stop-color:#008FC0"
         offset="0.3906" /></linearGradient><linearGradient
       id="SVGID_1_"
       gradientUnits="userSpaceOnUse"
       x1="422.3526"
       y1="405.94171"
       x2="422.3526"
       y2="627.28412"><stop
         offset="0"
         style="stop-color:#36B6B0"
         id="stop12" /><stop
         offset="0.3906"
         style="stop-color:#008FC0"
         id="stop14" /></linearGradient><linearGradient
       id="linearGradient4200"
       gradientUnits="userSpaceOnUse"
       x1="422.3526"
       y1="524.48901"
       x2="422.3526"
       y2="629.48492"><stop
         offset="0"
         style="stop-color:#00ABAE"
         id="stop19" /><stop
         offset="0.3906"
         style="stop-color:#008FC0"
         id="stop21" /></linearGradient></defs><sodipodi:namedview
     pagecolor="#ffffff"
     bordercolor="#666666"
     borderopacity="1"
     objecttolerance="10"
     gridtolerance="10"
     guidetolerance="10"
     inkscape:pageopacity="0"
     inkscape:pageshadow="2"
     inkscape:window-width="1280"
     inkscape:window-height="751"
     id="namedview37"
     showgrid="false"
     inkscape:zoom="1.5352354"
     inkscape:cx="320.30919"
     inkscape:cy="580.121"
     inkscape:window-x="0"
     inkscape:window-y="1"
     inkscape:window-maximized="1"
     inkscape:current-layer="Calque_1" /><style
     type="text/css"
     id="style3">
	.st0{fill:#008FC0;}
	.st1{font-family:'VarelaRound-Regular';}
	.st2{font-size:60px;}
	.st3{fill:url(#SVGID_1_);}
	.st4{fill:url(#SVGID_2_);}
	.st5{fill:#FFFFFF;}
	.st6{fill:none;}
	.st7{fill:#C6C6C6;}
	.st8{font-family:'Overpass-Regular';}
	.st9{font-size:24px;}
</style><text
     transform="translate(308.9837,708.0477)"
     class="st0 st1 st2"
     id="text5"
     style="font-size:60px;font-family:VarelaRound-Regular;fill:#008fc0"><tspan
       style="font-style:normal;font-variant:normal;font-weight:normal;font-stretch:normal;font-family:Roboto;-inkscape-font-specification:Roboto;fill:#1565c0;fill-opacity:1"
       id="tspan4169">Spotter.</tspan></text>
<path
     class="st3"
     d="m 475.9,628.6 -107,0 c -31.8,0 -57.8,-26 -57.8,-57.8 l 0,-107 c 0,-31.8 26,-57.8 57.8,-57.8 l 107,0 c 31.8,0 57.8,26 57.8,57.8 l 0,107 c 0,31.8 -26,57.8 -57.8,57.8 z"
     id="path16"
     style="fill:url(#SVGID_1_)"
     inkscape:connector-curvature="0" /><path
     class="st4"
     d="m 423.6,546.8 c -43.2,-13.5 -72.2,-42 -112.6,-9.4 l 0,33.3 c 0,31.8 26,57.8 57.8,57.8 l 107,0 c 31.8,0 57.8,-26 57.8,-57.8 l -0.3,-44.4 c -48.9,-11.5 -69,33.3 -109.7,20.5 z"
     id="path23"
     style="fill:url(#SVGID_2_);fill-opacity:1.0"
     inkscape:connector-curvature="0" /><g
     id="g25"><g
       id="g27"><path
         style="fill:#ffffff"
         inkscape:connector-curvature="0"
         id="path29"
         d="m 401.2,574.4 c -6.2,-2 -12.1,-5.4 -17.5,-10.2 -3,-2.7 -4.5,-5.6 -4.5,-8.8 0,-2.6 0.9,-4.8 2.8,-6.8 1.9,-1.9 4.2,-2.9 6.8,-2.9 2.1,0 4,0.7 5.7,2 4.5,3.7 8.8,6.3 13,8 4.2,1.7 9.2,2.5 15,2.5 6.2,0 11.6,-1.4 16.1,-4.2 4.5,-2.8 6.8,-6.2 6.8,-10.4 0,-5 -2.2,-8.9 -6.7,-11.8 -4.5,-2.8 -11.5,-5 -21.2,-6.4 -24.4,-3.6 -36.6,-14.9 -36.6,-34.1 0,-7 1.8,-13.1 5.5,-18.3 3.7,-5.2 8.7,-9.1 15,-11.9 6.3,-2.7 13.4,-4.1 21.2,-4.1 7,0 13.6,1.1 19.8,3.2 6.2,2.1 11.3,4.9 15.4,8.3 3.2,2.6 4.8,5.5 4.8,8.8 0,2.6 -0.9,4.8 -2.8,6.8 -1.9,1.9 -4.1,2.9 -6.7,2.9 -1.7,0 -3.2,-0.5 -4.5,-1.5 -2.9,-2.3 -6.9,-4.5 -12.1,-6.4 -5.2,-1.9 -9.8,-2.9 -13.9,-2.9 -7,0 -12.4,1.3 -16.3,3.9 -3.8,2.6 -5.8,6 -5.8,10.3 0,4.8 2,8.4 5.9,10.9 3.9,2.4 10.2,4.5 18.6,6 9.6,1.7 17.2,3.8 23,6.4 5.7,2.6 10,6.2 12.9,10.7 2.9,4.5 4.3,10.5 4.3,17.9 0,7 -2,13.2 -5.9,18.4 -4,5.3 -9.2,9.3 -15.8,12.2 -6.6,2.8 -13.6,4.3 -21.2,4.3 -7.7,0.2 -14.8,-0.8 -21.1,-2.8 z"
         class="st5" /></g><circle
       style="fill:#ffffff"
       id="circle31"
       r="8"
       cy="569.40002"
       cx="486.89999"
       class="st5" /></g><rect
     x="241.4"
     y="732"
     class="st6"
     width="362"
     height="51"
     id="rect33" /><text
     transform="matrix(1 0 0 1 265.1319 749.3276)"
     class="st7 st8 st9"
     id="text35"><tspan
       style="-inkscape-font-specification:Roboto;font-family:Roboto;font-weight:normal;font-style:normal;font-stretch:normal;font-variant:normal"
       id="tspan4171">Trouvez un spot dans l’heure.</tspan></text>
</svg>